<svg width="123" height="19" viewBox="0 0 123 19" fill="none" xmlns="http://www.w3.org/2000/svg">
<path d="M11.3032 9.20119L8.23371 8.34877C6.85487 7.96425 5.7099 7.42222 5.7099 5.88879C5.7099 4.35536 6.68434 3.28056 9.24225 3.28056C12.2923 3.28056 12.8428 4.62869 12.8428 6.10653C12.8428 6.27794 12.8428 6.47251 12.8428 6.72731L14.4263 6.66246C14.4629 6.41389 14.4775 6.16285 14.4701 5.91195C14.4506 4.32293 13.7393 1.88611 9.35431 1.88611C5.94377 1.88611 4.07771 3.63728 4.07771 5.88416C4.07771 8.04764 5.61246 9.12707 7.54185 9.67373L10.6893 10.6003C12.4092 11.0913 13.1693 11.7585 13.1693 13.0834C13.1693 14.5798 11.9074 15.738 9.27149 15.738C6.12891 15.738 5.37372 14.1768 5.37372 12.4951C5.36965 12.2796 5.38432 12.0643 5.41757 11.8511L3.85846 11.9577C3.81482 12.1979 3.79201 12.4412 3.79025 12.685C3.79025 14.501 4.56981 17.1139 9.27636 17.1139C13.0182 17.1139 14.7868 15.2979 14.7868 13.0927C14.7868 11.1238 13.6857 9.88221 11.2983 9.21973" fill="#181818"/>
<path d="M11.3032 9.20119L8.23371 8.34877C6.85487 7.96425 5.7099 7.42222 5.7099 5.88879C5.7099 4.35535 6.68434 3.28056 9.24225 3.28056C12.2923 3.28056 12.8428 4.62869 12.8428 6.10653C12.8428 6.27794 12.8428 6.47251 12.8428 6.72731L14.4263 6.66246C14.4629 6.41389 14.4775 6.16285 14.4701 5.91195C14.4506 4.32293 13.7393 1.88611 9.35431 1.88611C5.94377 1.88611 4.07771 3.63728 4.07771 5.88416C4.07771 8.04764 5.61246 9.12707 7.54185 9.67373L10.6893 10.6003C12.4092 11.0913 13.1693 11.7585 13.1693 13.0834C13.1693 14.5798 11.9074 15.738 9.27149 15.738C6.12891 15.738 5.37372 14.1768 5.37372 12.4951C5.36965 12.2796 5.38432 12.0643 5.41757 11.8511L3.85846 11.9577C3.81482 12.1979 3.79201 12.4412 3.79025 12.685C3.79025 14.501 4.56981 17.1139 9.27636 17.1139C13.0182 17.1139 14.7868 15.2979 14.7868 13.0927C14.7868 11.1238 13.6857 9.88221 11.2983 9.21973" stroke="black" stroke-width="0.5"/>
<path d="M19.6054 2.11774H17.9781V16.8823H19.6054V2.11774Z" fill="#181818" stroke="black" stroke-width="0.5"/>
<path d="M29.6958 8.66842V10.0814V16.8823H31.328V2.11774H29.6958V8.66842Z" fill="#181818" stroke="black" stroke-width="0.5"/>
<path d="M34.9042 16.8776H44.7704V15.511H36.5315V10.0953V8.68232V3.48439H44.7704V2.1131H34.9042V16.8776Z" fill="#181818" stroke="black" stroke-width="0.5"/>
<path d="M54.6999 10.8921V10.7624C55.7677 10.6028 56.7389 10.0817 57.4345 9.29511C58.1302 8.50851 58.5035 7.50938 58.4857 6.48177C58.4857 3.70213 56.3078 2.11774 52.907 2.11774H48.332V16.8823H49.9642V11.0635H52.8339C53.6134 11.2998 57.1019 16.5858 58.0666 16.8823H59.9278V16.6692C59.197 16.4792 55.6403 11.6148 54.6999 10.8921ZM52.8875 9.73395H49.9642V3.48903H52.8875C55.5039 3.48903 56.7853 4.81399 56.7853 6.48641C56.7853 8.26074 55.8108 9.72932 52.8875 9.72932" fill="#181818"/>
<path d="M52.8875 9.73395H49.9642V3.48903H52.8875C55.5039 3.48903 56.7853 4.81399 56.7853 6.48641C56.7853 8.26074 55.8108 9.72932 52.8875 9.72932M54.6999 10.8921V10.7624C55.7677 10.6028 56.7389 10.0817 57.4345 9.29511C58.1302 8.50851 58.5035 7.50938 58.4856 6.48177C58.4856 3.70213 56.3078 2.11774 52.907 2.11774H48.332V16.8823H49.9642V11.0635H52.8339C53.6134 11.2998 57.1019 16.5858 58.0666 16.8823H59.9278V16.6692C59.197 16.4792 55.6403 11.6148 54.6999 10.8921Z" stroke="black" stroke-width="0.5"/>
<path d="M104.104 7.10723C104.113 6.95293 104.113 6.79826 104.104 6.64396C104.104 5.05956 103.256 1.91394 98.0675 1.91394C93.8676 1.91394 91.0905 4.69358 91.0905 9.44676C91.0905 14.3667 93.8676 17.1093 98.0675 17.1093C101.649 17.1093 104.104 15.4832 104.104 12.4441C104.114 12.2667 104.114 12.0888 104.104 11.9114L102.477 11.8048C102.477 11.8048 102.477 11.9948 102.477 12.1476C102.477 14.5011 100.893 15.7427 98.1405 15.7427C94.9736 15.7427 92.8152 13.7089 92.8152 9.4514C92.8152 5.36533 94.9931 3.28986 98.1405 3.28986C100.893 3.28986 102.477 4.53143 102.477 6.88486C102.477 7.03311 102.477 7.22768 102.477 7.22768L104.104 7.10723Z" fill="#181818" stroke="black" stroke-width="0.5"/>
<path d="M44.0883 8.79352H38.2465V10.2019H44.0883V8.79352Z" fill="#181818" stroke="black" stroke-width="0.5"/>
<path d="M27.9808 8.55725H21.3205V9.9656H27.9808V8.55725Z" fill="#181818" stroke="black" stroke-width="0.5"/>
<path d="M80.7809 1.88611C76.5421 1.88611 73.1023 5.28654 73.1023 9.48379C73.1023 13.681 76.5421 17.0815 80.7809 17.0815C85.0197 17.0815 88.4595 13.681 88.4595 9.48379C88.4595 5.28654 85.0246 1.88611 80.7809 1.88611ZM80.7809 15.4739C77.497 15.4739 74.8271 12.7869 74.8271 9.48379C74.8271 6.18065 77.497 3.50757 80.7809 3.50757C84.0648 3.50757 86.7396 6.19455 86.7396 9.49769C86.7396 12.8008 84.0696 15.4878 80.7809 15.4878" fill="#181818"/>
<path d="M80.7809 15.4739C77.497 15.4739 74.8271 12.7869 74.8271 9.48379C74.8271 6.18065 77.497 3.50757 80.7809 3.50757C84.0648 3.50757 86.7396 6.19455 86.7396 9.49769C86.7396 12.8008 84.0696 15.4878 80.7809 15.4878M80.7809 1.88611C76.5421 1.88611 73.1023 5.28654 73.1023 9.48379C73.1023 13.681 76.5421 17.0815 80.7809 17.0815C85.0197 17.0815 88.4595 13.681 88.4595 9.48379C88.4595 5.28654 85.0246 1.88611 80.7809 1.88611Z" stroke="black" stroke-width="0.5"/>
<path d="M112.441 9.43746C112.928 9.07147 118.287 2.59028 118.657 2.33084V2.11774H116.752C116.397 2.33548 112.367 7.43148 111.218 8.5804H109.045V2.11774H107.417V16.8823H109.045V10.3964H111.218C112.504 11.6102 116.182 16.6275 116.616 16.8823H118.75V16.6692C117.995 16.2846 112.967 9.84051 112.416 9.43746" fill="#181818"/>
<path d="M112.441 9.43746C112.928 9.07147 118.287 2.59028 118.657 2.33084V2.11774H116.752C116.397 2.33548 112.367 7.43148 111.218 8.5804H109.045V2.11774H107.417V16.8823H109.045V10.3964H111.218C112.504 11.6102 116.182 16.6275 116.616 16.8823H118.75V16.6692C117.995 16.2846 112.967 9.84051 112.416 9.43746" stroke="black" stroke-width="0.5"/>
<path d="M64.3957 2.1131H62.7635V2.11773V15.4739V16.8776V16.8823H72.6102V16.8776V15.5156V15.4739H64.3957V2.1131Z" fill="#181818" stroke="black" stroke-width="0.5"/>
</svg>
